<svg width="1154" height="251" viewBox="0 0 1154 251" fill="none" xmlns="http://www.w3.org/2000/svg">
<path d="M63.6 186C30.2 152.5 2.99995 124.6 3.19995 124C3.59995 122.8 124.1 2 124.9 2C125.1 2 129.2 5.9 133.9 10.6L142.4 19.2L90.7 70.7C62.3 99 38.9999 122.7 38.9999 123.3C38.9999 125 88.3 174 90 174C90.8 174 99 166.5 108.2 157.3L125 140.5L133 148.5C137.4 152.9 141 157 141 157.6C141 158.2 133.9 165.4 125.2 173.7C116.6 182 108.8 190 108 191.5C106.6 194.2 106.6 194.3 114.8 202.2C119.4 206.6 123.5 210 124 209.8C124.6 209.6 140.5 194 159.5 175L194 140.6L203.5 150C208.8 155.2 212.9 160 212.8 160.5C212.3 162.1 126.6 247 125.5 246.9C124.9 246.9 97.1 219.5 63.6 186Z" fill="#15AFAD"/>
<path d="M79.1 133C75.2 128.5 72 124.6 72 124.2C72 122.7 157.5 39.0001 159.8 38.2001C160.2 38.1001 180 57.4001 203.8 81.2001L247 124.5L238.5 133L230 141.5L195.2 106.7C176.1 87.6001 159.8 72.0001 158.9 72.0001C157.4 72.0001 143 86.1001 143 87.6001C143 88.0001 150.7 96.2001 160.2 105.7L177.4 123L168.5 132L159.5 141L142.5 124C133.1 114.7 125 107 124.5 107C123.9 107 115.8 114.7 106.5 124C97.2 133.4 88.8 141 87.9 141C86.9 141 83 137.4 79.1 133Z" fill="#10837C"/>
<path d="M496.8 191.102C493.1 187.802 489.3 185.102 488.3 185.102C487.3 185.002 482.5 186.502 477.5 188.302C468.9 191.502 467.9 191.702 455.5 191.602C436.1 191.402 426.4 188.302 412.6 178.002C401.5 169.702 393 157.802 387.9 143.202C385.9 137.702 385.5 134.702 385.5 123.702C385.6 114.302 386 108.902 387.3 104.402C392.6 85.6021 406.1 69.2021 423.5 60.7021C434.2 55.4021 441.7 53.8021 455.5 53.9021C465.6 53.9021 468.8 54.3021 475.9 56.6021C489.2 60.7021 495.9 64.9021 506.5 75.8021C518.2 87.8021 523.8 100.602 524.7 117.702C525.8 138.402 519.8 155.402 505.8 170.702C502 174.802 501.2 176.202 502.3 176.902C503.1 177.302 506.1 179.802 509 182.402L514.2 187.202L509.8 192.102C507.5 194.902 505.1 197.102 504.5 197.102C504 197.102 500.5 194.402 496.8 191.102ZM470.3 175.502C473.4 174.602 476 173.702 476 173.402C476 173.102 473.5 170.602 470.3 167.802L464.7 162.602L469.5 157.402L474.2 152.302L481.8 158.702C486 162.302 489.7 165.202 490.1 165.202C492.2 165.202 501.8 152.802 505.1 145.702C512.9 128.902 512.8 114.302 504.9 98.4021C492.7 74.0021 458.9 60.8021 436 71.3021C424.4 76.7021 422.1 78.2021 415.5 84.7021C401.8 98.3021 396.3 116.302 400.5 134.002C404.9 152.602 419.5 168.902 437 174.702C448.2 178.402 458.6 178.702 470.3 175.502Z" fill="#22B1AD"/>
<path d="M591 191.502C576.4 189.802 558.6 176.802 551.9 163.002C546.1 151.102 546.6 155.702 546.2 104.402L545.9 57.1021L552.9 57.4021L560 57.7021L560.2 102.202L560.5 146.702L563.6 153.302C574.6 176.502 600.9 184.802 622.1 171.602C627.2 168.402 634.7 159.702 637.8 153.302L640.5 147.702L640.8 102.502L641.1 57.2021H648.1H655V101.102C655 126.002 654.6 147.202 654 150.202C652.3 159.402 647.3 168.002 639 176.202C630.8 184.302 624.3 188.302 615.9 190.402C610.6 191.802 597.9 192.302 591 191.502Z" fill="#22B1AD"/>
<path d="M282 122.702V57.2021H324.8C348.4 57.2021 367.9 57.4021 368.1 57.6021C368.3 57.8021 368.3 61.1021 368 64.9021L367.5 71.7021H332.8C309.4 71.7021 297.8 72.0021 297 72.8021C296.3 73.5021 296 79.5021 296.2 90.3021L296.5 106.702L325.8 107.002L355.1 107.202L354.8 114.402L354.5 121.602L326.4 121.302C302.8 121.102 298.2 121.302 297.2 122.502C296.3 123.602 296 130.502 296.2 148.802L296.5 173.702L333.2 174.002L370 174.202V181.202V188.202H326H282V122.702Z" fill="#22B1AD"/>
<path d="M685 122.702V57.2021H692H699V122.702V188.202H692H685V122.702Z" fill="#22B1AD"/>
<path d="M732 122.702V57.2021H774.9C798.6 57.2021 818.1 57.5021 818.3 58.0021C818.5 58.4021 818.4 61.6021 818.1 65.2021L817.5 71.7021L783.5 71.5021C763.5 71.4021 748.8 71.8021 747.7 72.3021C746.1 73.2021 746 74.9021 746.2 92.0021L746.5 110.702L775.8 111.002L805 111.202V118.202V125.202H776.1C750.7 125.202 747.1 125.402 746.6 126.802C746.3 127.702 746 141.802 746 158.302V188.202H739H732V122.702Z" fill="#22B1AD"/>
<path d="M837 188.002C836.6 182.902 836.4 77.9021 836.8 69.4021L837.3 57.2021H844.1H851V115.702V174.202L885.2 174.402L919.4 174.702L919.3 180.702C919.2 184.002 919.1 187.002 919.1 187.502C919 188.102 837 188.602 837 188.002Z" fill="#22B1AD"/>
<path d="M938 122.702V57.2021H981.5H1025.1L1024.8 64.5021L1024.5 71.7021H989.5C970.3 71.7021 953.9 72.1021 953.3 72.5021C951.8 73.4021 951.4 103.802 952.8 105.902C953.4 106.902 960.9 107.202 982.5 107.402L1011.5 107.702L1011.8 113.602C1012 116.802 1011.7 119.902 1011.1 120.502C1010.5 121.102 999.2 121.402 981.7 121.302C956.2 121.102 953.2 121.302 952.6 122.702C951.7 125.102 951.9 171.502 952.8 172.902C953.4 173.902 962.4 174.202 990 174.402L1026.4 174.702L1026.3 181.202L1026.2 187.702L982.1 188.002L938 188.202V122.702Z" fill="#22B1AD"/>
<path d="M1044 187.502C1044.1 186.802 1050.8 177.202 1065.2 157.202C1067.8 153.602 1070.3 150.302 1070.8 149.702C1071.2 149.202 1074.3 144.902 1077.5 140.202C1080.8 135.502 1084.9 129.802 1086.7 127.402L1089.9 123.102L1075.8 103.402C1068 92.6021 1060.2 81.9021 1058.5 79.6021C1056.9 77.3021 1054.8 74.5021 1054 73.3021C1053.2 72.0021 1050.7 68.5021 1048.4 65.4021C1046.2 62.2021 1044 59.1021 1043.6 58.5021C1043.1 57.5021 1044.9 57.2021 1051.8 57.2021H1060.7L1068.1 67.7021C1077 80.4021 1084.1 90.3021 1085.5 91.9021C1086 92.5021 1089.2 96.9021 1092.5 101.602C1098.2 109.602 1100 111.502 1100 109.202C1100 108.702 1100.7 107.402 1101.4 106.502C1102.9 104.602 1111.8 92.5021 1120.5 80.1021C1123.3 76.3021 1128.1 69.5021 1131.3 65.2021L1137.1 57.2021H1145.5C1150.2 57.2021 1154 57.6021 1154 58.1021C1154 58.5021 1152.5 60.9021 1150.7 63.3021C1148.9 65.7021 1146.8 68.7021 1146 69.9021C1145.2 71.1021 1138.4 80.5021 1130.9 90.9021C1123.4 101.202 1115.2 112.802 1112.6 116.502L1108 123.402L1111.3 128.002C1113.2 130.602 1120.4 140.602 1127.3 150.202C1134.2 159.802 1143 171.902 1146.7 177.102C1150.4 182.202 1153.7 186.902 1153.8 187.302C1154 187.802 1150.2 188.202 1145.3 188.202H1136.4L1118.6 163.202C1108.8 149.502 1100.2 137.802 1099.6 137.302C1098.8 136.602 1093.8 142.702 1083 157.802C1074.5 169.702 1066 181.302 1064.2 183.802L1060.9 188.202H1052.5C1047.8 188.202 1044 187.902 1044 187.502Z" fill="#22B1AD"/>
</svg>
